<?xml version="1.0" standalone="no"?>
<!DOCTYPE svg PUBLIC "-//W3C//DTD SVG 20010904//EN"
 "http://www.w3.org/TR/2001/REC-SVG-20010904/DTD/svg10.dtd">
<svg version="1.0" xmlns="http://www.w3.org/2000/svg"
 width="200.000000pt" height="200.000000pt" viewBox="0 0 200.000000 200.000000"
 preserveAspectRatio="xMidYMid meet">
<metadata>
Created by potrace 1.11, written by Peter Selinger 2001-2013
</metadata>
<g transform="translate(0.000000,200.000000) scale(0.100000,-0.100000)"
fill="#000000" stroke="none">
<path d="M915 1784 c-179 -27 -338 -139 -420 -295 -116 -221 -78 -483 96 -660
68 -69 195 -142 269 -155 19 -3 42 -7 50 -9 8 -2 17 -4 20 -4 3 -1 5 -26 5
-56 1 -43 -3 -55 -15 -56 -8 -1 -195 -2 -414 -3 -311 -1 -400 -4 -404 -14 -3
-10 85 -12 430 -10 l433 3 6 70 5 70 2 -67 c2 -61 13 -90 30 -73 4 3 7 35 7
71 0 35 3 64 8 64 4 0 7 -29 7 -64 0 -42 4 -65 13 -68 22 -6 847 -2 853 5 4 4
4 10 1 14 -4 4 -193 7 -419 7 l-412 1 -1 45 c-2 60 3 70 31 70 13 0 53 11 89
25 345 130 476 537 271 845 -67 102 -187 190 -306 224 -57 17 -184 27 -235 20z"/>
<path d="M781 468 c-45 -16 -55 -91 -18 -126 20 -19 35 -22 100 -22 64 0 78
-3 86 -18 18 -33 -6 -42 -111 -42 -98 0 -98 0 -98 -25 l0 -25 104 0 c89 0 107
3 130 21 32 25 35 75 7 110 -18 23 -41 27 -149 28 -41 1 -43 2 -40 29 l3 27
93 3 c90 3 93 4 90 25 -3 21 -8 22 -90 22 -48 1 -96 -3 -107 -7z"/>
<path d="M1020 453 c0 -21 4 -23 53 -23 l52 0 0 -107 c0 -104 1 -108 23 -111
25 -4 24 -9 23 126 0 67 3 92 12 91 7 -1 31 -1 55 0 39 1 43 3 40 24 -3 21 -6
22 -130 23 -127 0 -128 0 -128 -23z"/>
</g>
</svg>
