<?xml version="1.0" standalone="no"?>
<!DOCTYPE svg PUBLIC "-//W3C//DTD SVG 20010904//EN"
 "http://www.w3.org/TR/2001/REC-SVG-20010904/DTD/svg10.dtd">
<svg version="1.0" xmlns="http://www.w3.org/2000/svg"
 width="300.000000pt" height="65.000000pt" viewBox="0 0 300.000000 65.000000"
 preserveAspectRatio="xMidYMid meet">
<metadata>
Created by potrace 1.16, written by Peter Selinger 2001-2019
</metadata>
<g transform="translate(0.000000,65.000000) scale(0.100000,-0.100000)"
fill="#000000" stroke="none">
<path d="M205 366 c-4 -63 -4 -120 0 -125 3 -6 26 -11 51 -11 l45 0 -3 123 -3
122 -41 3 -42 3 -7 -115z"/>
<path d="M644 436 c-41 -18 -64 -52 -64 -96 0 -101 106 -148 213 -93 23 11 26
17 17 33 -11 21 -30 27 -30 10 0 -5 -17 -14 -39 -21 -49 -14 -91 3 -105 44
-27 75 80 130 139 71 15 -15 17 -15 30 2 21 27 20 28 -32 47 -57 20 -87 21
-129 3z"/>
<path d="M362 402 c-9 -6 -12 -31 -10 -88 l3 -79 48 -3 48 -3 -3 88 -3 88 -35
3 c-19 1 -41 -2 -48 -6z"/>
<path d="M889 396 c-74 -42 -51 -154 36 -170 41 -8 99 14 114 42 18 33 13 79
-12 107 -28 33 -98 43 -138 21z"/>
<path d="M1080 321 l0 -91 74 0 c96 0 121 17 121 84 0 69 -24 88 -119 94 l-76
5 0 -92z"/>
<path d="M1308 321 l-3 -90 88 -3 c81 -3 87 -2 87 17 0 18 -6 20 -60 17 -56
-4 -60 -2 -60 18 0 20 4 22 40 18 36 -3 40 -1 40 19 0 20 -5 23 -40 23 -30 0
-40 4 -40 16 0 13 10 15 60 12 57 -3 60 -2 60 20 0 21 -4 22 -84 22 l-85 0 -3
-89z"/>
<path d="M1763 399 c-64 -19 -85 -98 -38 -144 35 -36 115 -36 150 0 17 16 25
35 25 60 0 38 -35 85 -64 85 -8 0 -20 2 -28 4 -7 2 -27 0 -45 -5z"/>
<path d="M2458 403 l-77 -4 -3 -84 -3 -85 83 0 c66 0 82 3 82 15 0 12 -13 15
-60 15 -58 0 -60 1 -60 26 0 25 2 26 40 21 33 -4 40 -2 40 12 0 13 -8 16 -40
13 -35 -4 -40 -2 -40 17 0 19 6 21 60 21 53 0 60 2 60 20 0 11 -1 19 -2 18 -2
-1 -38 -4 -80 -5z"/>
<path d="M2613 399 c-36 -10 -49 -38 -33 -69 11 -20 30 -27 85 -32 18 -2 31
-9 33 -19 4 -22 -37 -29 -82 -14 -29 10 -36 10 -41 -3 -8 -22 -1 -25 64 -30
72 -5 101 8 101 47 0 37 -14 47 -77 56 -35 4 -53 12 -53 21 0 22 50 29 82 11
26 -15 28 -15 38 2 8 16 4 20 -35 30 -24 6 -45 11 -47 10 -2 0 -17 -5 -35 -10z"/>
<path d="M1938 315 l-3 -85 25 0 c24 0 26 3 22 35 -4 31 -1 35 18 35 22 0 59
-35 60 -57 0 -8 13 -13 31 -13 l30 0 -25 33 c-31 41 -31 43 -6 50 15 4 20 14
20 40 0 42 -10 47 -100 47 l-69 0 -3 -85z"/>
</g>
</svg>
