<?xml version="1.0" standalone="no"?>
<!DOCTYPE svg PUBLIC "-//W3C//DTD SVG 20010904//EN"
 "http://www.w3.org/TR/2001/REC-SVG-20010904/DTD/svg10.dtd">
<svg version="1.0" xmlns="http://www.w3.org/2000/svg"
 width="400.000000pt" height="100.000000pt" viewBox="0 0 400.000000 100.000000"
 preserveAspectRatio="xMidYMid meet">
<metadata>
Created by potrace 1.16, written by Peter Selinger 2001-2019
</metadata>
<g transform="translate(0.000000,100.000000) scale(0.100000,-0.100000)"
fill="#000000" stroke="none">
<path d="M237 780 c-50 -13 -87 -33 -114 -62 l-23 -24 35 -34 c33 -32 37 -33
58 -20 75 47 134 53 204 19 41 -20 93 -86 93 -117 0 -9 -61 -12 -225 -12
l-225 0 0 -48 c0 -163 104 -266 270 -266 127 -1 223 60 273 173 l20 46 14 -41
c20 -60 75 -119 141 -151 47 -23 70 -28 132 -28 164 0 270 103 270 261 l0 54
-226 0 c-202 0 -225 2 -220 16 3 9 6 20 6 24 0 18 66 83 97 96 62 26 120 18
190 -27 21 -13 26 -11 60 24 l38 38 -25 20 c-87 71 -221 86 -322 36 -66 -32
-121 -91 -141 -151 l-14 -41 -20 46 c-58 130 -208 203 -346 169z m243 -347 c0
-4 -10 -22 -22 -40 -45 -66 -154 -93 -228 -55 -31 15 -80 72 -80 93 0 5 74 9
165 9 91 0 165 -3 165 -7z m570 0 c0 -20 -43 -75 -72 -93 -39 -23 -113 -26
-161 -6 -32 13 -97 78 -97 96 0 6 66 10 165 10 91 0 165 -3 165 -7z"/>
<path d="M2070 520 l0 -140 25 0 c22 0 25 4 25 37 l0 36 33 -37 c26 -31 38
-37 62 -34 l30 3 -44 48 -44 48 38 39 39 40 -34 0 c-21 0 -42 -8 -57 -22 l-23
-21 0 71 c0 70 -1 72 -25 72 l-25 0 0 -140z"/>
<path d="M2461 646 c-7 -8 -15 -30 -18 -50 -3 -21 -11 -36 -19 -36 -8 0 -14
-7 -14 -15 0 -8 7 -15 15 -15 12 0 15 -15 15 -75 0 -73 1 -75 25 -75 24 0 25
2 25 75 0 68 2 75 20 75 11 0 20 7 20 15 0 8 -9 15 -21 15 -30 0 -23 54 9 58
14 2 22 10 22 23 0 15 -7 19 -34 19 -18 0 -39 -6 -45 -14z"/>
<path d="M3630 520 l0 -140 25 0 c22 0 25 4 25 37 l0 36 33 -37 c26 -31 38
-37 62 -34 l30 3 -44 48 -44 48 38 39 39 40 -34 0 c-21 0 -42 -8 -57 -22 l-23
-21 0 71 c0 70 -1 72 -25 72 l-25 0 0 -140z"/>
<path d="M1414 631 c-31 -19 -64 -82 -64 -122 0 -70 63 -129 138 -129 76 0
108 28 128 113 l6 27 -66 0 c-59 0 -66 -2 -66 -19 0 -16 8 -20 41 -23 l41 -3
-18 -23 c-11 -13 -35 -25 -56 -29 -32 -5 -41 -1 -68 25 -73 74 7 195 98 148
27 -14 31 -14 43 0 11 14 10 19 -10 35 -31 25 -106 25 -147 0z"/>
<path d="M2973 630 c-46 -28 -66 -72 -60 -134 4 -41 10 -55 41 -83 32 -29 42
-33 92 -33 50 0 59 3 90 34 26 26 34 42 34 70 l0 36 -60 0 c-53 0 -60 -2 -60
-20 0 -16 7 -20 35 -20 46 0 45 -24 -2 -49 -34 -17 -59 -13 -92 15 -43 36 -44
93 -2 135 32 32 65 37 97 15 17 -12 22 -12 39 1 20 14 20 15 -4 34 -31 26
-105 25 -148 -1z"/>
<path d="M1665 535 c-19 -18 -25 -35 -25 -65 0 -57 34 -90 92 -90 41 0 88 21
88 39 0 16 -30 21 -54 9 -26 -11 -76 -4 -76 12 0 6 31 10 71 10 l72 0 -7 32
c-10 51 -42 78 -93 78 -33 0 -50 -6 -68 -25z"/>
<path d="M1876 529 c-37 -44 -32 -102 13 -136 34 -26 141 -6 141 26 0 14 -33
22 -44 11 -15 -15 -62 -12 -76 5 -11 13 -3 15 59 15 65 0 71 2 71 20 0 29 -26
76 -45 84 -9 3 -34 6 -55 6 -30 0 -44 -6 -64 -31z"/>
<path d="M2265 540 c-28 -31 -10 -71 37 -85 47 -13 54 -21 30 -34 -16 -8 -24
-7 -36 4 -19 19 -46 19 -46 1 0 -44 91 -64 123 -28 34 37 17 76 -39 91 -34 9
-44 31 -15 31 12 0 21 -4 21 -10 0 -5 9 -10 20 -10 23 0 27 29 8 48 -20 20
-83 15 -103 -8z"/>
<path d="M2565 535 c-19 -18 -25 -35 -25 -65 0 -58 33 -90 95 -90 62 0 95 32
95 90 0 58 -33 90 -95 90 -35 0 -52 -6 -70 -25z"/>
<path d="M3225 535 c-36 -35 -35 -105 1 -134 38 -30 103 -28 133 3 19 21 20
24 6 30 -9 3 -25 1 -36 -5 -25 -13 -71 -8 -77 9 -3 9 14 12 62 12 l66 0 0 30
c0 46 -39 80 -90 80 -30 0 -47 -6 -65 -25z"/>
<path d="M3435 535 c-19 -18 -25 -35 -25 -65 0 -57 34 -90 92 -90 41 0 88 21
88 39 0 16 -30 21 -54 9 -26 -11 -76 -4 -76 12 0 6 31 10 71 10 l72 0 -7 32
c-10 51 -42 78 -93 78 -33 0 -50 -6 -68 -25z"/>
<path d="M3826 544 c-19 -19 -21 -58 -3 -71 6 -6 25 -15 41 -20 17 -5 31 -14
33 -20 6 -17 -25 -23 -41 -8 -17 17 -56 20 -56 5 0 -24 41 -50 78 -50 81 0 97
82 22 106 -35 12 -48 28 -31 38 5 3 16 -1 24 -9 22 -21 47 -19 47 5 0 38 -83
56 -114 24z"/>
</g>
</svg>
