<?xml version="1.0" standalone="no"?>
<!DOCTYPE svg PUBLIC "-//W3C//DTD SVG 20010904//EN"
 "http://www.w3.org/TR/2001/REC-SVG-20010904/DTD/svg10.dtd">
<svg version="1.0" xmlns="http://www.w3.org/2000/svg"
 width="334.000000pt" height="36.000000pt" viewBox="0 0 334.000000 36.000000"
 preserveAspectRatio="xMidYMid meet">
<metadata>
Created by potrace 1.16, written by Peter Selinger 2001-2019
</metadata>
<g transform="translate(0.000000,36.000000) scale(0.100000,-0.100000)"
fill="#000000" stroke="none">
<path d="M0 180 l0 -180 50 0 50 0 0 65 0 65 35 0 35 0 0 -65 0 -65 50 0 50 0
0 180 0 180 -50 0 -50 0 0 -70 0 -70 -35 0 -35 0 0 70 0 70 -50 0 -50 0 0
-180z"/>
<path d="M920 180 l0 -180 50 0 50 0 0 34 c0 18 7 39 15 46 12 10 18 7 32 -20
34 -61 35 -61 91 -58 l52 3 -52 78 -51 78 53 54 54 55 -58 0 c-56 0 -60 -2
-97 -42 l-38 -43 -1 88 0 87 -50 0 -50 0 0 -180z"/>
<path d="M1810 180 l0 -180 50 0 50 0 0 55 c0 72 17 72 55 0 l30 -55 53 0 c28
0 52 3 52 8 0 4 -16 33 -34 65 l-34 59 23 24 c48 52 39 150 -18 184 -26 16
-50 20 -129 20 l-98 0 0 -180z"/>
<path d="M2750 180 l0 -180 50 0 50 0 0 34 c0 18 7 39 15 46 12 10 18 7 32
-20 34 -61 35 -61 91 -58 l52 3 -52 78 -51 78 53 54 54 55 -58 0 c-56 0 -60
-2 -97 -42 l-38 -43 -1 88 0 87 -50 0 -50 0 0 -180z"/>
<path d="M348 254 l-36 -15 16 -29 c16 -28 19 -29 82 -25 l65 4 -60 -15 c-76
-19 -105 -45 -105 -94 0 -51 32 -80 91 -80 24 0 55 7 67 16 20 14 22 14 22 0
0 -12 11 -16 45 -16 l45 0 0 85 c0 95 -15 143 -51 169 -30 21 -130 21 -181 0z"/>
<path d="M695 251 c-48 -29 -67 -57 -72 -104 -10 -87 49 -147 145 -147 49 0
122 21 122 35 0 4 -8 20 -17 36 -12 20 -22 27 -33 23 -8 -4 -31 -9 -52 -12
-30 -3 -39 0 -53 22 -33 49 7 93 76 82 34 -5 40 -3 59 24 l21 29 -30 16 c-42
21 -129 19 -166 -4z"/>
<path d="M1284 260 c-30 -12 -71 -64 -79 -100 -9 -41 9 -91 46 -126 28 -27 36
-29 108 -29 97 0 118 12 95 56 -8 16 -16 29 -18 29 -2 0 -16 -4 -32 -10 -32
-11 -85 -1 -92 18 -3 9 20 12 82 12 l86 0 0 35 c0 48 -24 91 -60 110 -31 16
-102 19 -136 5z"/>
<path d="M1530 135 l0 -135 50 0 50 0 0 65 c0 57 3 69 25 90 18 19 35 25 68
25 42 0 45 2 51 31 11 57 10 59 -43 59 -39 0 -56 -6 -80 -26 l-31 -26 0 26 c0
24 -3 26 -45 26 l-45 0 0 -135z"/>
<path d="M2158 254 l-36 -15 16 -29 c16 -28 19 -29 82 -25 l65 4 -60 -15 c-76
-19 -105 -45 -105 -94 0 -51 32 -80 91 -80 24 0 55 7 67 16 20 14 22 14 22 0
0 -12 11 -16 45 -16 l45 0 0 85 c0 95 -15 143 -51 169 -30 21 -130 21 -181 0z"/>
<path d="M2430 135 l0 -135 50 0 50 0 0 85 c0 75 2 86 21 95 37 20 49 -3 49
-96 l0 -84 50 0 50 0 0 94 c0 101 -12 151 -40 166 -28 15 -93 12 -118 -6 -20
-14 -22 -14 -22 0 0 12 -11 16 -45 16 l-45 0 0 -135z"/>
</g>
</svg>
